<?xml version="1.0" encoding="utf-8"?>
<!-- Generator: Adobe Illustrator 24.3.0, SVG Export Plug-In . SVG Version: 6.00 Build 0)  -->
<svg version="1.1" id="Layer_1" xmlns="http://www.w3.org/2000/svg" xmlns:xlink="http://www.w3.org/1999/xlink" x="0px" y="0px"
	 viewBox="0 0 512 512" style="enable-background:new 0 0 512 512;" xml:space="preserve">
<style type="text/css">
	.st0{fill:#FFF100;}
	.st1{fill:#231F20;}
</style>
<g id="XMLID_1_">
	<ellipse id="XMLID_3_" class="st0" cx="255.98" cy="256" rx="251.58" ry="142.14"/>
	<path id="XMLID_4_" class="st1" d="M507.56,256h-4.49c0,9.26-1.68,18.38-4.91,27.08c-2.81,7.72-6.73,15.15-11.79,22.45
		c-8.84,12.63-21.05,24.55-36.06,35.22c-22.59,16-51.35,29.18-84.47,38.45c-33.11,9.26-70.44,14.45-110,14.45
		c-34.38,0-67.21-3.93-96.96-11.08c-22.31-5.33-42.94-12.49-61.32-21.05c-13.75-6.45-26.24-13.61-37.18-21.47
		c-16.42-11.79-29.47-25.12-38.31-39.29c-4.35-7.02-7.86-14.45-10.1-21.89c-2.24-7.44-3.51-15.15-3.51-23.01
		c0-9.26,1.68-18.38,4.91-27.08c2.81-7.72,6.74-15.15,11.79-22.45c8.84-12.63,21.05-24.55,36.06-35.22
		c22.59-16,51.35-29.18,84.47-38.45c33.11-9.26,70.44-14.45,110-14.45c34.38,0,67.21,3.93,96.96,11.08
		c22.31,5.33,42.94,12.49,61.32,21.05c13.75,6.45,26.24,13.61,37.18,21.47c16.42,11.79,29.47,25.12,38.31,39.29
		c4.35,7.16,7.86,14.45,10.1,21.89c2.24,7.44,3.51,15.15,3.51,23.01L507.56,256l4.49,0c0-10.38-1.82-20.49-5.33-30.17
		c-3.09-8.56-7.44-16.7-12.91-24.55c-9.54-13.61-22.45-26.24-38.17-37.32c-23.57-16.7-53.32-30.31-87.27-39.71
		s-71.98-14.73-112.39-14.73l0,0c-35.08,0-68.47,4.07-98.92,11.22c-22.87,5.47-44.06,12.77-63,21.61
		c-14.17,6.59-27.22,14.17-38.59,22.31C38.36,177,24.46,191.04,14.92,206.47c-4.77,7.72-8.56,15.71-11.08,23.99
		C1.31,238.74,0.05,247.3,0.05,256c0,10.38,1.82,20.49,5.33,30.17c3.09,8.56,7.44,16.7,12.91,24.55
		c9.54,13.61,22.45,26.24,38.16,37.32c23.57,16.7,53.32,30.31,87.27,39.71c33.96,9.4,71.98,14.73,112.39,14.73
		c35.08,0,68.47-4.07,98.92-11.23c22.87-5.47,44.06-12.77,63-21.61c14.17-6.59,27.22-14.17,38.59-22.31
		c17.12-12.35,31.01-26.38,40.55-41.81c4.77-7.72,8.56-15.71,11.08-23.99c2.53-8.28,3.79-16.84,3.79-25.54L507.56,256L507.56,256z"
		/>
	<path id="XMLID_5_" class="st1" d="M216.83,212.08c-60.76,22.59-91.62-33.53-60.76-65.95C106.83,158.76,26.71,194.4,26.71,253.61
		c0,53.88,52.34,84.33,90.08,97.38c-36.34-45.04,13.61-80.26,57.39-31.01c34.1-60.47,74.37,26.38,81.52,39.57
		c7.16-13.19,47.43-100.04,81.52-39.57c43.78-49.25,93.87-13.89,57.39,31.01c37.74-13.05,90.08-43.5,90.08-97.38
		c0-59.21-80.12-94.85-129.37-107.48c30.87,32.41,0,88.54-60.76,65.95c-7.02-8.42-11.51-25.68-11.51-76.47
		c-8.14,5.33-14.03,23.99-14.45,25.26c-12.91-3.93-25.82,0-25.82,0c-0.56-1.26-6.31-20.06-14.45-25.26
		C228.34,186.41,223.85,203.66,216.83,212.08z"/>
	<path id="XMLID_6_" class="st1" d="M216.83,212.08L216.83,212.08c-9.82,3.51-18.66,5.05-26.8,5.05c-14.31,0-25.82-5.05-33.82-12.77
		c-7.86-7.72-12.21-18.24-12.21-28.9c0-10.1,3.79-20.49,12.07-29.18l0.42-0.42l-0.56,0.14c-24.69,6.31-56.97,18.38-83.21,36.2
		c-13.05,8.98-24.69,19.36-32.97,31.29s-13.33,25.26-13.33,40.13c0,26.94,13.19,48.13,31.01,64.12s40.41,26.94,59.21,33.39
		l0.56,0.14l-0.28-0.42c-8.84-10.8-12.49-21.19-12.49-29.75c0-7.44,2.67-13.61,7.44-17.96c4.63-4.35,11.22-6.88,18.94-6.88
		c12.77,0,28.48,6.88,43.5,23.85l0.14,0.14l0.14-0.14c4.35-7.72,8.7-12.91,13.19-16.28c4.35-3.37,8.84-4.77,13.19-4.77
		c6.45,0,12.77,3.23,18.66,8.14c8.98,7.44,16.98,18.66,23.29,29.04c6.31,10.38,10.94,19.78,12.91,23.57l0.14,0.28l0.14-0.28
		c2.67-4.91,9.96-20.06,19.78-34.1c4.91-7.02,10.52-13.61,16.42-18.52c5.89-4.91,12.21-8.14,18.66-8.14c4.35,0,8.84,1.4,13.19,4.77
		s8.84,8.7,13.19,16.28l0.14,0.14l0.14-0.14c15.01-16.84,30.73-23.85,43.5-23.85c7.72,0,14.17,2.53,18.94,6.88
		c4.63,4.35,7.44,10.52,7.44,17.96c0,8.7-3.79,18.94-12.49,29.75l-0.28,0.42l0.56-0.14c18.94-6.59,41.39-17.4,59.21-33.39
		s31.01-37.04,31.01-64.12c0-14.87-5.05-28.2-13.33-40.13c-24.84-35.64-79.28-58.09-116.18-67.49l-0.56-0.14l0.42,0.42
		c8.28,8.7,12.07,19.08,12.07,29.18c0,10.8-4.35,21.19-12.21,28.9c-7.86,7.72-19.36,12.77-33.82,12.77c-8,0-16.98-1.54-26.66-5.19
		v0.14l0.14-0.14c-3.51-4.21-6.31-10.52-8.42-22.17c-1.96-11.65-3.09-28.76-3.09-54.16v-0.28l-0.28,0.14
		c-4.07,2.67-7.58,8.7-10.1,14.17c-1.26,2.81-2.24,5.33-3.09,7.44c-0.42,0.98-0.7,1.82-0.84,2.53c-0.28,0.7-0.42,1.12-0.42,1.26
		h0.14v-0.14c-4.35-1.26-8.56-1.68-12.49-1.68c-7.72,0-13.47,1.68-13.47,1.68v0.14h0.14c0-0.14-0.28-0.56-0.42-1.26
		c-0.84-2.25-2.53-7.16-4.91-12.07c-2.39-4.91-5.61-9.82-9.12-12.07l-0.28-0.14v0.28c0,25.4-1.12,42.51-3.09,54.16
		C223.01,201.42,220.2,207.73,216.83,212.08L216.83,212.08L216.83,212.08L216.83,212.08L216.83,212.08
		c3.65-4.07,6.59-10.52,8.56-22.31c1.96-11.79,3.09-28.76,3.09-54.16h-0.14l-0.14,0.14c4.07,2.67,7.58,8.56,10.1,14.03
		c1.26,2.81,2.25,5.33,3.09,7.44c0.42,0.98,0.7,1.82,0.84,2.53c0.28,0.7,0.42,1.12,0.42,1.26v0.14h0.14c0,0,0.14,0,0.28-0.14
		c1.12-0.28,6.45-1.68,13.05-1.68c3.79,0,8.14,0.42,12.35,1.68h0.14v-0.14c0-0.14,0.28-0.56,0.42-1.26
		c0.84-2.25,2.53-7.16,4.91-11.93c2.39-4.91,5.47-9.68,9.12-11.93l-0.14-0.14h-0.14c0,25.4,1.12,42.51,3.09,54.16
		c1.96,11.79,4.91,18.1,8.42,22.31l0,0l0,0c9.68,3.65,18.66,5.19,26.8,5.19c14.45,0,25.96-5.05,33.96-12.91
		c8-7.86,12.35-18.38,12.35-29.18c0-10.24-3.79-20.63-12.21-29.47l-0.14,0.14V146c24.55,6.31,56.97,18.38,83.06,36.2
		c13.05,8.98,24.69,19.36,32.83,31.15c8.28,11.79,13.33,25.12,13.33,39.99c0,26.8-13.05,47.85-30.87,63.84
		c-17.82,16-40.27,26.8-59.21,33.39v0.14l0.14,0.14c8.84-10.94,12.63-21.33,12.63-30.03c0-7.44-2.81-13.75-7.44-18.24
		c-4.77-4.49-11.37-7.02-19.08-7.02c-12.77,0-28.62,7.02-43.64,23.85l0.14,0.14l0.14-0.14c-4.35-7.72-8.7-13.05-13.19-16.42
		c-4.49-3.37-8.98-4.91-13.33-4.91c-6.59,0-12.91,3.23-18.8,8.14c-8.98,7.44-16.98,18.66-23.29,29.18
		c-6.31,10.38-10.94,19.92-12.91,23.57l0.14,0.14l0.14-0.14c-2.67-4.91-9.96-20.06-19.78-34.1c-4.91-7.02-10.52-13.61-16.42-18.66
		c-6.03-4.91-12.35-8.14-18.8-8.14c-4.49,0-8.98,1.54-13.33,4.91c-4.49,3.37-8.84,8.7-13.19,16.42l0.14,0.14l0.14-0.14
		c-15.01-16.98-30.87-23.85-43.64-23.85c-7.72,0-14.31,2.53-19.08,7.02c-4.77,4.49-7.44,10.66-7.44,18.24
		c0,8.7,3.79,19.08,12.63,30.03l0.14-0.14v-0.14c-18.8-6.59-41.39-17.4-59.21-33.39s-30.87-37.04-30.87-63.84
		c0-14.73,5.05-28.06,13.33-39.99C65.3,177.85,119.6,155.4,156.5,146v-0.14l-0.14-0.14c-8.28,8.7-12.21,19.22-12.21,29.47
		c0,10.8,4.35,21.33,12.35,29.18c8,7.86,19.5,12.91,33.96,12.91C198.17,217.41,207.15,215.73,216.83,212.08L216.83,212.08
		L216.83,212.08L216.83,212.08z"/>
</g>
</svg>
